name D:\school\WTK\thesis\model\3dpredictsim\Results\debug_batch\Pog_s1_tmt_bCst_d05_k2000_ig24.mot
datacolumns 128
datarows 4
range 0.53727127 0.56950754
endheader
time	pelvis_tilt	pelvis_list	pelvis_rotation	pelvis_tx	pelvis_ty	pelvis_tz	hip_flexion_l	hip_adduction_l	hip_rotation_l	hip_flexion_r	hip_adduction_r	hip_rotation_r	knee_angle_l	knee_angle_r	ankle_angle_l	ankle_angle_r	subtalar_angle_l	subtalar_angle_r	tmt_angle_l	tmt_angle_r	mtp_angle_l	mtp_angle_r	lumbar_extension	lumbar_bending	lumbar_rotation	arm_flex_l	arm_add_l	arm_rot_l	arm_flex_r	arm_add_r	arm_rot_r	elbow_flex_l	elbow_flex_r	pro_sup_l	pro_sup_r	glut_med1_l/activation	glut_med2_l/activation	glut_med3_l/activation	glut_min1_l/activation	glut_min2_l/activation	glut_min3_l/activation	semimem_l/activation	semiten_l/activation	bifemlh_l/activation	bifemsh_l/activation	sar_l/activation	add_long_l/activation	add_brev_l/activation	add_mag1_l/activation	add_mag2_l/activation	add_mag3_l/activation	tfl_l/activation	pect_l/activation	grac_l/activation	glut_max1_l/activation	glut_max2_l/activation	glut_max3_l/activation	iliacus_l/activation	psoas_l/activation	quad_fem_l/activation	gem_l/activation	peri_l/activation	rect_fem_l/activation	vas_med_l/activation	vas_int_l/activation	vas_lat_l/activation	med_gas_l/activation	lat_gas_l/activation	soleus_l/activation	tib_post_l/activation	flex_dig_l/activation	flex_hal_l/activation	tib_ant_l/activation	per_brev_l/activation	per_long_l/activation	per_tert_l/activation	ext_dig_l/activation	ext_hal_l/activation	ercspn_l/activation	intobl_l/activation	extobl_l/activation	glut_med1_r/activation	glut_med2_r/activation	glut_med3_r/activation	glut_min1_r/activation	glut_min2_r/activation	glut_min3_r/activation	semimem_r/activation	semiten_r/activation	bifemlh_r/activation	bifemsh_r/activation	sar_r/activation	add_long_r/activation	add_brev_r/activation	add_mag1_r/activation	add_mag2_r/activation	add_mag3_r/activation	tfl_r/activation	pect_r/activation	grac_r/activation	glut_max1_r/activation	glut_max2_r/activation	glut_max3_r/activation	iliacus_r/activation	psoas_r/activation	quad_fem_r/activation	gem_r/activation	peri_r/activation	rect_fem_r/activation	vas_med_r/activation	vas_int_r/activation	vas_lat_r/activation	med_gas_r/activation	lat_gas_r/activation	soleus_r/activation	tib_post_r/activation	flex_dig_r/activation	flex_hal_r/activation	tib_ant_r/activation	per_brev_r/activation	per_long_r/activation	per_tert_r/activation	ext_dig_r/activation	ext_hal_r/activation	ercspn_r/activation	intobl_r/activation	extobl_r/activation	
          0.53727127	         -2.92892168	          2.18965074	         -5.32399916	          0.67158909	          0.85868707	          0.00193808	         31.65723944	          3.11993177	         -1.98034562	        -17.81364164	         -1.75519409	          7.06892380	        -15.73442846	         -7.59484367	          6.25553276	          0.42767853	         -1.59350507	         11.37076709	          0.01792973	          0.85940504	         -0.11942335	         22.02565484	         -1.97919938	         -0.64080682	          1.86988920	         -8.75104829	        -13.55447050	          6.20894176	          6.96361770	        -13.45599470	         16.43165683	         15.34277927	         36.16094486	         86.51662706	         86.51662706	          0.05000007	          0.05000006	          0.05000133	          0.05000005	          0.05000007	          0.05000021	          0.05895443	          0.05895442	          0.14350936	          0.05000013	          0.05000035	          0.09394525	          0.14266469	          0.20699785	          0.16670261	          0.10671351	          0.05895450	          0.05038939	          0.05895460	          0.05000321	          0.06951257	          0.10390449	          0.05000011	          0.05000017	          0.21135199	          0.05000247	          0.05000058	          0.05001565	          0.12784564	          0.13206046	          0.10954999	          0.05895450	          0.05895444	          0.05895451	          0.05000001	          0.05000023	          0.05000033	          0.50665803	          0.35502718	          0.20401218	          0.27481364	          0.56073240	          0.25260454	          0.06650021	          0.10405846	          0.10942297	          0.30699279	          0.10525514	          0.07749877	          0.33432206	          0.22171479	          0.10975657	          0.05000057	          0.05000008	          0.05000005	          0.07716111	          0.11079093	          0.05491589	          0.05000018	          0.05000016	          0.05000035	          0.05000024	          0.30898873	          0.05000102	          0.05000016	          0.05000087	          0.05000066	          0.05000044	          0.34107148	          0.57661377	          0.05000004	          0.05000015	          0.05000007	          0.18678695	          0.06330408	          0.05000096	          0.05000102	          0.30937985	          0.41937276	          0.29615179	          0.26056470	          0.27075250	          0.34703140	          0.05000000	          0.06948514	          0.17898782	          0.05000007	          0.05000001	          0.05000004	          0.05000000	          0.05000000	          0.05000001	
          0.54801669	         -2.92271128	          2.28573564	         -5.59305093	          0.68772749	          0.85764733	          0.00173385	         31.01400031	          3.49859187	         -1.77665726	        -17.60193834	         -2.04815560	          6.83685061	        -15.52694986	         -9.64873992	          5.69809802	         -0.39327477	         -2.07535388	         12.33024745	          0.02157524	          0.73823097	         -0.10506956	         23.03312989	         -1.78567959	         -0.87388043	          1.94463324	         -9.75557923	        -13.55142906	          6.04835497	          6.78695564	        -13.46873121	         16.67231364	         15.19399879	         37.23425060	         86.51662706	         86.51662706	          0.05599550	          0.05000135	          0.05000009	          0.05348599	          0.05000137	          0.05000023	          0.05000001	          0.05000004	          0.12171198	          0.05000004	          0.05000053	          0.07967612	          0.12099560	          0.27260848	          0.19735626	          0.09709120	          0.05000008	          0.05000059	          0.05000019	          0.05895447	          0.05895458	          0.11393692	          0.05000009	          0.05000022	          0.51001766	          0.12563028	          0.10063254	          0.06951274	          0.22345732	          0.22737175	          0.19304954	          0.05000000	          0.05000000	          0.05000000	          0.05019699	          0.06951253	          0.05052825	          0.57912984	          0.33624189	          0.21393675	          0.47336472	          0.59621048	          0.23422088	          0.05639959	          0.08825316	          0.09280287	          0.26036410	          0.08926809	          0.06572769	          0.28354238	          0.18803885	          0.09308581	          0.05000117	          0.05000016	          0.05000028	          0.06544122	          0.09396313	          0.13673081	          0.09560116	          0.06951260	          0.05001839	          0.06950496	          0.26205691	          0.08314906	          0.05005310	          0.05000083	          0.05000057	          0.05000064	          0.28926662	          0.51606571	          0.05020875	          0.06785745	          0.05895459	          0.15841616	          0.06419055	          0.15841559	          0.15841467	          0.26238857	          0.35567482	          0.25116970	          0.22098794	          0.22962841	          0.29432137	          0.05000000	          0.05893116	          0.15284013	          0.05000003	          0.05000000	          0.05000004	          0.05000002	          0.06951270	          0.05000001	
          0.55876212	         -2.91234647	          2.37957812	         -5.83861221	          0.70415082	          0.85657709	          0.00154531	         30.21941717	          3.81807952	         -1.50126894	        -17.31622866	         -2.33059180	          6.59384844	        -15.81605945	        -11.83097360	          5.15010908	         -1.37608751	         -2.58875363	         13.22555307	         -0.01494419	          0.61508319	         -0.15481588	         23.86790125	         -1.57146272	         -1.11071848	          2.00939138	        -10.77353388	        -13.55161922	          5.92817150	          6.52875814	        -13.48252344	         16.84791645	         15.07873282	         38.27752312	         86.51662706	         86.51662706	          0.29284009	          0.05000003	          0.32869722	          0.05000007	          0.05000006	          0.26987267	          0.08696402	          0.05000014	          0.12665974	          0.05000003	          0.05000017	          0.08196178	          0.20386505	          0.23120249	          0.16738114	          0.12604788	          0.05000022	          0.06943444	          0.13117067	          0.05000005	          0.05000008	          0.09663127	          0.05697173	          0.05000029	          0.43255180	          0.10654851	          0.18322510	          0.05895455	          0.18951672	          0.19283660	          0.16372753	          0.05895453	          0.05895454	          0.05895451	          0.05895450	          0.05895443	          0.05895451	          0.49116662	          0.33887684	          0.18144222	          0.40146618	          0.61175877	          0.19864541	          0.05000001	          0.09664070	          0.07870717	          0.35438351	          0.07570929	          0.05574444	          0.24047561	          0.15947791	          0.07894715	          0.05000079	          0.05000019	          0.05000019	          0.05550146	          0.07969130	          0.15368633	          0.16756435	          0.05895479	          0.05895421	          0.05895013	          0.22225358	          0.08200617	          0.05197363	          0.05004239	          0.05012729	          0.05895390	          0.24533035	          0.48435478	          0.05895445	          0.05755081	          0.05000008	          0.13435456	          0.07919655	          0.13435414	          0.13435335	          0.22253473	          0.30165186	          0.21301988	          0.18742239	          0.19475051	          0.24961733	          0.05000000	          0.05000017	          0.19827324	          0.05000002	          0.05000002	          0.05000004	          0.05771556	          0.05895452	          0.05013333	
          0.56950754	         -2.89966001	          2.47229237	         -6.05282104	          0.72068350	          0.85548927	          0.00134700	         29.29031771	          4.10181668	         -1.21472344	        -16.93118066	         -2.60071704	          6.34909507	        -16.12166358	        -14.16584540	          4.78717627	         -2.48055818	         -3.11446176	         14.04740593	         -0.00974456	          0.47812882	         -0.15909956	         24.43865606	         -1.35396706	         -1.35092624	          2.06448308	        -11.75845191	        -13.55486419	          5.86937324	          6.21555679	        -13.50088304	         16.97116467	         14.96489453	         39.27623000	         86.51662706	         86.51662706	          0.33763542	          0.30291229	          0.38476607	          0.19926011	          0.18058924	          0.22888221	          0.07375525	          0.11836352	          0.10742160	          0.08196168	          0.05000084	          0.06951273	          0.17290028	          0.19608558	          0.16874856	          0.15827028	          0.05000007	          0.05888828	          0.11196253	          0.23052648	          0.17360344	          0.14277057	          0.05000003	          0.05000003	          0.36685212	          0.09036509	          0.15539542	          0.05000003	          0.16073139	          0.22317525	          0.15174278	          0.05000001	          0.05000003	          0.05000000	          0.05000000	          0.05000009	          0.05000005	          0.61559026	          0.36991501	          0.18613246	          0.65127753	          0.66620135	          0.34724108	          0.07489811	          0.08196209	          0.06675245	          0.30055685	          0.06420991	          0.05000000	          0.30326902	          0.13525506	          0.06695599	          0.05000088	          0.05000004	          0.05000003	          0.05000005	          0.06758735	          0.15812231	          0.14211335	          0.05000031	          0.05000028	          0.05000012	          0.20313628	          0.06955123	          0.05000011	          0.05000025	          0.05000015	          0.05000010	          0.20806748	          0.44031039	          0.05000001	          0.05000008	          0.05000004	          0.11394766	          0.08467935	          0.11394748	          0.11394748	          0.18873424	          0.25583438	          0.18066458	          0.15895507	          0.16517016	          0.21170332	          0.10382488	          0.14490500	          0.16815786	          0.05000148	          0.16993581	          0.05000040	          0.08994965	          0.05000000	          0.05000000	
